#!OML:ASF F:\VICON\USERDATA\INSTALL\rory3\rory3.ASF
:FULLY-SPECIFIED
:DEGREES
138
root 0.795187 17.8032 -3.01347 -0.947189 1.27672 3.41209
lowerback 10.0932 -1.43612 -4.71302
upperback 1.00678 -2.37851 1.12715
thorax -4.36753 -1.08403 4.15603
lowerneck -17.0213 -2.86779 -1.91502
upperneck 20.3906 -3.52552 0.233379
head 9.26918 -1.77107 -0.0570025
rclavicle 1.76918e-014 -1.35174e-014
rhumerus -29.3998 -19.4678 -79.2317
rradius 25.4395
rwrist 5.36426
rhand -15.8838 25.0705
rfingers 7.12502
rthumb 10.3123 -4.65665
lclavicle 1.76918e-014 -1.35174e-014
lhumerus -19.2134 -5.41438 81.9132
lradius 29.8982
lwrist 6.28993
lhand -28.5433 27.9304
lfingers 7.12502
lthumb -1.91064 57.9016
rfemur -28.6571 7.20845 15.1609
rtibia 18.1141
rfoot -12.2198 -14.4742
rtoes 2.71455
lfemur 14.2178 -3.26122 -27.2647
ltibia 17.6299
lfoot -14.6189 0.115267
ltoes -12.8023
139
root 0.769981 17.8004 -2.80207 -1.13784 1.38398 3.5081
lowerback 10.1001 -1.52825 -4.88021
upperback 1.00624 -2.51925 1.14335
thorax -4.34932 -1.1512 4.28581
lowerneck -17.0686 -2.82264 -2.03948
upperneck 20.5715 -3.45442 0.33609
head 9.34464 -1.73588 0.00572709
rclavicle 3.17559e-014 -4.37326e-015
rhumerus -29.5196 -19.8823 -78.9166
rradius 25.3409
rwrist 6.81481
rhand -16.1016 24.248
rfingers 7.12502
rthumb 10.1022 -5.48951
lclavicle 3.17559e-014 -4.37326e-015
lhumerus -19.6724 -5.16431 81.9719
lradius 30.1802
lwrist 6.0625
lhand -27.7648 29.3
lfingers 7.12502
lthumb -1.15878 59.2766
rfemur -28.2945 6.76635 15.4735
rtibia 19.3083
rfoot -12.2183 -13.7367
rtoes 2.24521
lfemur 14.9439 -3.46044 -27.3586
ltibia 18.0631
lfoot -14.3078 -0.408199
ltoes -13.4771
140
root 0.74253 17.8133 -2.59378 -1.13061 1.55636 3.50245
lowerback 9.99265 -1.61846 -4.96133
upperback 0.896271 -2.64127 1.22792
thorax -4.38388 -1.20624 4.43433
lowerneck -17.0102 -2.8147 -2.24176
upperneck 20.6938 -3.41446 0.433958
head 9.38211 -1.72253 0.077797
rclavicle -4.15957e-014 6.36111e-015
rhumerus -29.9536 -19.808 -78.61
rradius 25.4859
rwrist 7.39495
rhand -15.9277 22.9978
rfingers 7.12502
rthumb 10.2699 -6.73143
lclavicle -4.15957e-014 6.36111e-015
lhumerus -20.1828 -4.9103 82.1301
lradius 30.486
lwrist 5.8262
lhand -28.0238 27.8549
lfingers 7.12502
lthumb -1.40889 57.83
rfemur -28.1127 6.41455 15.8026
rtibia 20.3222
rfoot -11.3397 -13.1823
rtoes 0.340269
lfemur 15.3528 -3.77993 -27.3379
ltibia 18.5138
lfoot -13.3414 -0.455186
ltoes -10.5308
141
root 0.718895 17.8423 -2.38453 -1.02055 1.65348 3.36313
lowerback 9.77961 -1.654 -4.76212
upperback 0.760233 -2.65747 1.26267
thorax -4.41315 -1.21409 4.35452
lowerneck -16.5863 -2.81212 -2.17062
upperneck 20.5242 -3.40735 0.297844
head 9.24102 -1.73107 0.0277444
rclavicle -9.19379e-015 5.96354e-015
rhumerus -30.3893 -19.853 -78.4068
rradius 25.3328
rwrist 6.90223
rhand -15.4409 22.3173
rfingers 7.12502
rthumb 10.7395 -7.38814
lclavicle -9.19379e-015 5.96354e-015
lhumerus -20.4979 -4.85614 82.2193
lradius 30.5909
lwrist 5.79112
lhand -27.2694 25.7694
lfingers 7.12502
lthumb -0.680257 55.7481
rfemur -28.0673 6.30531 16.1012
rtibia 21.0743
rfoot -9.79481 -12.9562
rtoes -1.58317
lfemur 15.4198 -4.28625 -27.2646
ltibia 19.1991
lfoot -12.5901 -1.45805
ltoes -5.08041
